# xmcd CD database file
#
# Track frame offsets:
#	150
#	18912
#	37667
#	58609
#	79619
#	94019
#	108419
#	125896
#	143371
#	156421
#	169471
#	188372
#	207272
#	220547
#	233822
#	251969
#	270122
#	287823
#	305524
#	323582
#	341505
#
# Disc length: 4567 seconds
#
# Revision: 0
# Processed by: cddbd v1.5.2PL0 Copyright (c) Steve Scherf et al.
# Submitted via: CDex 1.79
#
DISCID=1b11d515
DTITLE=Hal Leonard - Vol 47 - Jazz Ballads
DYEAR=2000
DGENRE=Jazz
TTITLE0=For heaven?s sake
TTITLE1=For heaven?s sake - Stereo
TTITLE2=It might as well be spring
TTITLE3=It might as well be spring - Stereo
TTITLE4=It`s easy to remember
TTITLE5=It`s easy to remember - Stereo
TTITLE6=June in January
TTITLE7=June in January - Stereo
TTITLE8=Love letters
TTITLE9=Love letters - Stereo
TTITLE10=More than you know
TTITLE11=More than you know - Stereo
TTITLE12=Some enchanted evening
TTITLE13=Some enchanted evening - Stereo
TTITLE14=Some other spring
TTITLE15=Some other spring - Stereo
TTITLE16=You don`t know what love is
TTITLE17=You don`t know what love is - Stereo
TTITLE18=You`ve changed
TTITLE19=You`ve changed - Stereo
TTITLE20=Bb Tuning notes
EXTD=YEAR: 2000
EXTT0=
EXTT1=
EXTT2=
EXTT3=
EXTT4=
EXTT5=
EXTT6=
EXTT7=
EXTT8=
EXTT9=
EXTT10=
EXTT11=
EXTT12=
EXTT13=
EXTT14=
EXTT15=
EXTT16=
EXTT17=
EXTT18=
EXTT19=
EXTT20=
PLAYORDER=
